<mxfile host="app.diagrams.net" agent="Mozilla/5.0 (Windows NT 10.0; Win64; x64) AppleWebKit/537.36 (KHTML, like Gecko) Chrome/134.0.0.0 YaBrowser/25.4.0.0 Safari/537.36" version="27.1.3">
  <diagram name="Страница — 1" id="JpqDumeH1DS9-SMglbLF">
    <mxGraphModel dx="1042" dy="580" grid="1" gridSize="10" guides="1" tooltips="1" connect="1" arrows="1" fold="1" page="1" pageScale="1" pageWidth="827" pageHeight="1169" math="0" shadow="0">
      <root>
        <mxCell id="0" />
        <mxCell id="1" parent="0" />
        <mxCell id="GcIRI8py4X8SpXVnwHKR-9" value="" style="group" vertex="1" connectable="0" parent="1">
          <mxGeometry x="180" y="350" width="181" height="80" as="geometry" />
        </mxCell>
        <mxCell id="GcIRI8py4X8SpXVnwHKR-3" value="" style="endArrow=classic;startArrow=classic;html=1;rounded=0;fillColor=#f8cecc;strokeColor=#FF0100;" edge="1" parent="GcIRI8py4X8SpXVnwHKR-9">
          <mxGeometry width="50" height="50" relative="1" as="geometry">
            <mxPoint y="50" as="sourcePoint" />
            <mxPoint x="40" y="50" as="targetPoint" />
          </mxGeometry>
        </mxCell>
        <mxCell id="GcIRI8py4X8SpXVnwHKR-25" value="" style="endArrow=classic;html=1;rounded=0;exitX=0.622;exitY=0.03;exitDx=0;exitDy=0;exitPerimeter=0;entryX=0.626;entryY=1;entryDx=0;entryDy=0;entryPerimeter=0;strokeColor=#FF3333;" edge="1" parent="1" source="GcIRI8py4X8SpXVnwHKR-10" target="GcIRI8py4X8SpXVnwHKR-6">
          <mxGeometry width="50" height="50" relative="1" as="geometry">
            <mxPoint x="420" y="380" as="sourcePoint" />
            <mxPoint x="470" y="330" as="targetPoint" />
          </mxGeometry>
        </mxCell>
        <mxCell id="GcIRI8py4X8SpXVnwHKR-27" value="" style="endArrow=classic;html=1;rounded=0;exitX=0.302;exitY=1.01;exitDx=0;exitDy=0;exitPerimeter=0;entryX=0.296;entryY=0;entryDx=0;entryDy=0;entryPerimeter=0;strokeColor=#FF3333;" edge="1" parent="1" source="GcIRI8py4X8SpXVnwHKR-6" target="GcIRI8py4X8SpXVnwHKR-10">
          <mxGeometry width="50" height="50" relative="1" as="geometry">
            <mxPoint x="430" y="340" as="sourcePoint" />
            <mxPoint x="430" y="370" as="targetPoint" />
          </mxGeometry>
        </mxCell>
        <mxCell id="GcIRI8py4X8SpXVnwHKR-28" value="" style="endArrow=classic;html=1;rounded=0;exitX=0.668;exitY=0.007;exitDx=0;exitDy=0;exitPerimeter=0;strokeColor=#FF3333;" edge="1" parent="1" source="GcIRI8py4X8SpXVnwHKR-7">
          <mxGeometry width="50" height="50" relative="1" as="geometry">
            <mxPoint x="414" y="480" as="sourcePoint" />
            <mxPoint x="464" y="430" as="targetPoint" />
          </mxGeometry>
        </mxCell>
        <mxCell id="GcIRI8py4X8SpXVnwHKR-29" value="" style="endArrow=classic;html=1;rounded=0;exitX=0.302;exitY=1.005;exitDx=0;exitDy=0;exitPerimeter=0;strokeColor=#FF3333;" edge="1" parent="1" source="GcIRI8py4X8SpXVnwHKR-10">
          <mxGeometry width="50" height="50" relative="1" as="geometry">
            <mxPoint x="370" y="500" as="sourcePoint" />
            <mxPoint x="420" y="450" as="targetPoint" />
          </mxGeometry>
        </mxCell>
        <mxCell id="GcIRI8py4X8SpXVnwHKR-30" value="" style="endArrow=classic;html=1;rounded=0;exitX=0.664;exitY=0.023;exitDx=0;exitDy=0;exitPerimeter=0;strokeColor=#FF3333;" edge="1" parent="1" source="GcIRI8py4X8SpXVnwHKR-8">
          <mxGeometry width="50" height="50" relative="1" as="geometry">
            <mxPoint x="414" y="560" as="sourcePoint" />
            <mxPoint x="464" y="510" as="targetPoint" />
          </mxGeometry>
        </mxCell>
        <mxCell id="GcIRI8py4X8SpXVnwHKR-31" value="" style="endArrow=classic;html=1;rounded=0;exitX=0.25;exitY=1;exitDx=0;exitDy=0;strokeColor=#FF3333;entryX=0.246;entryY=0;entryDx=0;entryDy=0;entryPerimeter=0;" edge="1" parent="1" source="GcIRI8py4X8SpXVnwHKR-7" target="GcIRI8py4X8SpXVnwHKR-8">
          <mxGeometry width="50" height="50" relative="1" as="geometry">
            <mxPoint x="364" y="590" as="sourcePoint" />
            <mxPoint x="414" y="540" as="targetPoint" />
            <Array as="points">
              <mxPoint x="414" y="520" />
            </Array>
          </mxGeometry>
        </mxCell>
        <mxCell id="GcIRI8py4X8SpXVnwHKR-37" value="" style="group" vertex="1" connectable="0" parent="1">
          <mxGeometry x="384.5" y="440" width="136.5" height="70" as="geometry" />
        </mxCell>
        <mxCell id="GcIRI8py4X8SpXVnwHKR-7" value="БД" style="rounded=1;whiteSpace=wrap;html=1;strokeColor=#FF0000;" vertex="1" parent="GcIRI8py4X8SpXVnwHKR-37">
          <mxGeometry y="10" width="120" height="60" as="geometry" />
        </mxCell>
        <mxCell id="GcIRI8py4X8SpXVnwHKR-35" value="MM" style="ellipse;whiteSpace=wrap;html=1;aspect=fixed;" vertex="1" parent="GcIRI8py4X8SpXVnwHKR-37">
          <mxGeometry x="95.5" width="41" height="41" as="geometry" />
        </mxCell>
        <mxCell id="GcIRI8py4X8SpXVnwHKR-38" value="" style="group" vertex="1" connectable="0" parent="1">
          <mxGeometry x="384.5" y="530" width="136.5" height="70" as="geometry" />
        </mxCell>
        <mxCell id="GcIRI8py4X8SpXVnwHKR-8" value="Система аудита" style="rounded=1;whiteSpace=wrap;html=1;strokeColor=#FF0000;" vertex="1" parent="GcIRI8py4X8SpXVnwHKR-38">
          <mxGeometry y="10" width="120" height="60" as="geometry" />
        </mxCell>
        <mxCell id="GcIRI8py4X8SpXVnwHKR-36" value="MM" style="ellipse;whiteSpace=wrap;html=1;aspect=fixed;" vertex="1" parent="GcIRI8py4X8SpXVnwHKR-38">
          <mxGeometry x="95.5" width="41" height="41" as="geometry" />
        </mxCell>
        <mxCell id="GcIRI8py4X8SpXVnwHKR-39" value="" style="group" vertex="1" connectable="0" parent="1">
          <mxGeometry x="384.5" y="350" width="136.5" height="80" as="geometry" />
        </mxCell>
        <mxCell id="GcIRI8py4X8SpXVnwHKR-10" value="Ядро системы" style="rounded=1;whiteSpace=wrap;html=1;strokeColor=#FF0000;" vertex="1" parent="GcIRI8py4X8SpXVnwHKR-39">
          <mxGeometry y="20" width="120" height="60" as="geometry" />
        </mxCell>
        <mxCell id="GcIRI8py4X8SpXVnwHKR-33" value="MM" style="ellipse;whiteSpace=wrap;html=1;aspect=fixed;" vertex="1" parent="GcIRI8py4X8SpXVnwHKR-39">
          <mxGeometry x="95.5" width="41" height="41" as="geometry" />
        </mxCell>
        <mxCell id="GcIRI8py4X8SpXVnwHKR-40" value="" style="group" vertex="1" connectable="0" parent="1">
          <mxGeometry x="384.5" y="250" width="136.5" height="80" as="geometry" />
        </mxCell>
        <mxCell id="GcIRI8py4X8SpXVnwHKR-6" value="Система контроля рецептов" style="rounded=1;whiteSpace=wrap;html=1;strokeColor=#FF0000;" vertex="1" parent="GcIRI8py4X8SpXVnwHKR-40">
          <mxGeometry y="20" width="120" height="60" as="geometry" />
        </mxCell>
        <mxCell id="GcIRI8py4X8SpXVnwHKR-34" value="MM" style="ellipse;whiteSpace=wrap;html=1;aspect=fixed;" vertex="1" parent="GcIRI8py4X8SpXVnwHKR-40">
          <mxGeometry x="95.5" width="41" height="41" as="geometry" />
        </mxCell>
        <mxCell id="GcIRI8py4X8SpXVnwHKR-42" value="Робот-фармацевт" style="rounded=1;whiteSpace=wrap;html=1;strokeColor=#FF3333;" vertex="1" parent="1">
          <mxGeometry x="590" y="450" width="120" height="60" as="geometry" />
        </mxCell>
        <mxCell id="GcIRI8py4X8SpXVnwHKR-43" value="" style="endArrow=classic;html=1;rounded=0;exitX=1;exitY=0.5;exitDx=0;exitDy=0;strokeColor=#FF3333;" edge="1" parent="1" source="GcIRI8py4X8SpXVnwHKR-7">
          <mxGeometry width="50" height="50" relative="1" as="geometry">
            <mxPoint x="510" y="479.58" as="sourcePoint" />
            <mxPoint x="590" y="480" as="targetPoint" />
          </mxGeometry>
        </mxCell>
        <mxCell id="GcIRI8py4X8SpXVnwHKR-44" value="" style="endArrow=classic;html=1;rounded=0;exitX=0;exitY=0.75;exitDx=0;exitDy=0;entryX=1;entryY=0.75;entryDx=0;entryDy=0;strokeColor=#FF3333;" edge="1" parent="1" source="GcIRI8py4X8SpXVnwHKR-42" target="GcIRI8py4X8SpXVnwHKR-7">
          <mxGeometry width="50" height="50" relative="1" as="geometry">
            <mxPoint x="454.5" y="540" as="sourcePoint" />
            <mxPoint x="504.5" y="490" as="targetPoint" />
          </mxGeometry>
        </mxCell>
        <mxCell id="GcIRI8py4X8SpXVnwHKR-45" value="" style="endArrow=classic;html=1;rounded=0;exitX=1.001;exitY=0.628;exitDx=0;exitDy=0;exitPerimeter=0;entryX=0.028;entryY=0.906;entryDx=0;entryDy=0;entryPerimeter=0;strokeColor=#FF3333;" edge="1" parent="1" source="GcIRI8py4X8SpXVnwHKR-8" target="GcIRI8py4X8SpXVnwHKR-42">
          <mxGeometry width="50" height="50" relative="1" as="geometry">
            <mxPoint x="540" y="560" as="sourcePoint" />
            <mxPoint x="590" y="510" as="targetPoint" />
          </mxGeometry>
        </mxCell>
        <mxCell id="GcIRI8py4X8SpXVnwHKR-46" value="" style="endArrow=classic;html=1;rounded=0;exitX=0.25;exitY=1;exitDx=0;exitDy=0;entryX=1;entryY=1;entryDx=0;entryDy=0;strokeColor=#FF3333;" edge="1" parent="1" source="GcIRI8py4X8SpXVnwHKR-42" target="GcIRI8py4X8SpXVnwHKR-8">
          <mxGeometry width="50" height="50" relative="1" as="geometry">
            <mxPoint x="454.5" y="635" as="sourcePoint" />
            <mxPoint x="504.5" y="585" as="targetPoint" />
          </mxGeometry>
        </mxCell>
        <mxCell id="GcIRI8py4X8SpXVnwHKR-48" value="MM" style="ellipse;whiteSpace=wrap;html=1;aspect=fixed;" vertex="1" parent="1">
          <mxGeometry x="690" y="440" width="41" height="41" as="geometry" />
        </mxCell>
        <mxCell id="GcIRI8py4X8SpXVnwHKR-2" value="Связь" style="rounded=1;whiteSpace=wrap;html=1;strokeColor=light-dark(#ff0000, #ededed);" vertex="1" parent="1">
          <mxGeometry x="220" y="370" width="120" height="60" as="geometry" />
        </mxCell>
        <mxCell id="GcIRI8py4X8SpXVnwHKR-4" value="MM" style="ellipse;whiteSpace=wrap;html=1;aspect=fixed;" vertex="1" parent="1">
          <mxGeometry x="320" y="350" width="41" height="41" as="geometry" />
        </mxCell>
        <mxCell id="GcIRI8py4X8SpXVnwHKR-13" value="" style="endArrow=classic;html=1;rounded=0;exitX=1;exitY=0.5;exitDx=0;exitDy=0;strokeColor=#FF3333;entryX=0;entryY=0.5;entryDx=0;entryDy=0;" edge="1" parent="1" source="GcIRI8py4X8SpXVnwHKR-2" target="GcIRI8py4X8SpXVnwHKR-10">
          <mxGeometry width="50" height="50" relative="1" as="geometry">
            <mxPoint x="336.76" y="398.4590352576519" as="sourcePoint" />
            <mxPoint x="380" y="400" as="targetPoint" />
            <Array as="points" />
          </mxGeometry>
        </mxCell>
      </root>
    </mxGraphModel>
  </diagram>
</mxfile>
